<svg width="37" height="38" viewBox="0 0 37 38" fill="none" xmlns="http://www.w3.org/2000/svg">
<path d="M31.1874 17.1468V22.4431C31.1874 24.7897 31.1858 26.4498 31.078 27.7467C30.9718 29.0237 30.7706 29.8018 30.4525 30.4119C29.8336 31.6005 28.8622 32.57 27.6703 33.1874C27.0587 33.5047 26.2787 33.7055 24.9987 33.8114C23.6986 33.9189 22.0345 33.9206 19.6824 33.9206H14.7839C12.4317 33.9206 10.7677 33.9189 9.46778 33.8114C8.18745 33.7055 7.40774 33.5047 6.796 33.1874C5.60432 32.57 4.63267 31.6005 4.01363 30.4119C3.69586 29.8018 3.49465 29.0237 3.38829 27.7467C3.28037 26.4498 3.27901 24.7897 3.27901 22.4431V17.5565C3.27901 15.21 3.28037 13.55 3.38829 12.2532C3.49465 10.976 3.69586 10.1981 4.01363 9.58787C4.63267 8.39907 5.60432 7.42976 6.796 6.81221C7.40774 6.4952 8.18745 6.29448 9.46778 6.18841C10.7677 6.08071 12.4316 6.0794 14.7839 6.0794H20.0931C20.1405 4.93284 20.37 3.83313 20.7532 2.80829H14.711C12.4481 2.80825 10.648 2.80825 9.1964 2.9285C7.70965 3.05166 6.44223 3.30942 5.28446 3.90939C3.49387 4.83728 2.03393 6.29374 1.1038 8.08001C0.502386 9.23496 0.244 10.4993 0.120545 11.9825C7.08486e-07 13.4306 0 15.2263 0 17.4838V22.5158C0 24.7733 7.08486e-07 26.5692 0.120545 28.0174C0.244 29.5005 0.502386 30.7648 1.1038 31.9199C2.03393 33.7059 3.49387 35.1624 5.28446 36.0905C6.44223 36.6904 7.70965 36.948 9.1964 37.0715C10.648 37.1917 12.448 37.1917 14.7109 37.1917H19.7553C22.0181 37.1917 23.8183 37.1917 25.27 37.0715C26.7567 36.948 28.024 36.6904 29.1819 36.0905C30.9722 35.1624 32.4322 33.7059 33.3626 31.9199C33.9639 30.7648 34.2221 29.5005 34.3459 28.0174C34.4664 26.5692 34.4664 24.7733 34.4664 22.5162V16.4882C33.4389 16.8706 32.3367 17.0995 31.1874 17.1468Z" fill="white"/>
<path d="M22 7.97658C22 3.91177 25.3032 0.616577 29.3778 0.616577C33.4524 0.616577 36.7556 3.91177 36.7556 7.97658C36.7556 12.0414 33.4524 15.3366 29.3778 15.3366C25.3032 15.3366 22 12.0414 22 7.97658Z" fill="#7214FF"/>
</svg>